<svg width="414" height="179" viewBox="0 0 414 179" fill="none" xmlns="http://www.w3.org/2000/svg">
<path d="M56.3829 74.4883H64.8738V86.7484C63.1618 87.9357 61.1737 88.8469 58.9095 89.482C56.6452 90.1171 54.4224 90.4347 52.241 90.4347C49.1483 90.4347 46.3732 89.7996 43.9157 88.5294C41.4582 87.2316 39.5253 85.4368 38.117 83.1449C36.7364 80.8254 36.0461 78.2022 36.0461 75.2753C36.0461 72.3483 36.7364 69.7389 38.117 67.447C39.5253 65.1275 41.472 63.3327 43.9571 62.0625C46.4699 60.7647 49.3002 60.1158 52.4481 60.1158C55.2922 60.1158 57.8326 60.5991 60.0692 61.5655C62.3334 62.5043 64.2111 63.885 65.7022 65.7074L59.4479 71.2162C57.6255 69.09 55.4579 68.0269 52.9451 68.0269C50.7913 68.0269 49.0793 68.6758 47.8091 69.9736C46.5389 71.2714 45.9038 73.0386 45.9038 75.2753C45.9038 77.4567 46.5251 79.2101 47.7677 80.5355C49.0379 81.8609 50.7223 82.5236 52.8208 82.5236C54.0634 82.5236 55.2508 82.2889 56.3829 81.8195V74.4883ZM83.784 90.4347C80.6637 90.4347 77.861 89.7858 75.3759 88.488C72.8907 87.1902 70.944 85.3953 69.5357 83.1035C68.1275 80.784 67.4234 78.1746 67.4234 75.2753C67.4234 72.3759 68.1275 69.7803 69.5357 67.4884C70.944 65.169 72.8907 63.3603 75.3759 62.0625C77.861 60.7647 80.6637 60.1158 83.784 60.1158C86.9042 60.1158 89.7069 60.7647 92.192 62.0625C94.6772 63.3603 96.6239 65.169 98.0322 67.4884C99.4404 69.7803 100.145 72.3759 100.145 75.2753C100.145 78.1746 99.4404 80.784 98.0322 83.1035C96.6239 85.3953 94.6772 87.1902 92.192 88.488C89.7069 89.7858 86.9042 90.4347 83.784 90.4347ZM83.784 82.5236C84.9989 82.5236 86.0896 82.2337 87.0561 81.6538C88.0501 81.0463 88.8371 80.2041 89.417 79.1272C89.9968 78.0227 90.2868 76.7387 90.2868 75.2753C90.2868 73.8118 89.9968 72.5416 89.417 71.4647C88.8371 70.3602 88.0501 69.518 87.0561 68.9381C86.0896 68.3306 84.9989 68.0269 83.784 68.0269C82.569 68.0269 81.4645 68.3306 80.4704 68.9381C79.504 69.518 78.7308 70.3602 78.1509 71.4647C77.5711 72.5416 77.2811 73.8118 77.2811 75.2753C77.2811 76.7387 77.5711 78.0227 78.1509 79.1272C78.7308 80.2041 79.504 81.0463 80.4704 81.6538C81.4645 82.2337 82.569 82.5236 83.784 82.5236ZM118.438 90.4347C115.317 90.4347 112.515 89.7858 110.029 88.488C107.544 87.1902 105.598 85.3953 104.189 83.1035C102.781 80.784 102.077 78.1746 102.077 75.2753C102.077 72.3759 102.781 69.7803 104.189 67.4884C105.598 65.169 107.544 63.3603 110.029 62.0625C112.515 60.7647 115.317 60.1158 118.438 60.1158C121.558 60.1158 124.361 60.7647 126.846 62.0625C129.331 63.3603 131.278 65.169 132.686 67.4884C134.094 69.7803 134.798 72.3759 134.798 75.2753C134.798 78.1746 134.094 80.784 132.686 83.1035C131.278 85.3953 129.331 87.1902 126.846 88.488C124.361 89.7858 121.558 90.4347 118.438 90.4347ZM118.438 82.5236C119.653 82.5236 120.743 82.2337 121.71 81.6538C122.704 81.0463 123.491 80.2041 124.071 79.1272C124.65 78.0227 124.94 76.7387 124.94 75.2753C124.94 73.8118 124.65 72.5416 124.071 71.4647C123.491 70.3602 122.704 69.518 121.71 68.9381C120.743 68.3306 119.653 68.0269 118.438 68.0269C117.223 68.0269 116.118 68.3306 115.124 68.9381C114.158 69.518 113.384 70.3602 112.805 71.4647C112.225 72.5416 111.935 73.8118 111.935 75.2753C111.935 76.7387 112.225 78.0227 112.805 79.1272C113.384 80.2041 114.158 81.0463 115.124 81.6538C116.118 82.2337 117.223 82.5236 118.438 82.5236ZM137.89 60.7785H152.18C155.411 60.7785 158.255 61.3722 160.712 62.5596C163.197 63.7193 165.117 65.3899 166.47 67.5713C167.85 69.7527 168.541 72.3207 168.541 75.2753C168.541 78.2298 167.85 80.7978 166.47 82.9792C165.117 85.1606 163.197 86.845 160.712 88.0324C158.255 89.1921 155.411 89.772 152.18 89.772H137.89V60.7785ZM151.766 82.1508C153.864 82.1508 155.535 81.5572 156.778 80.3698C158.048 79.1549 158.683 77.4567 158.683 75.2753C158.683 73.0938 158.048 71.4095 156.778 70.2221C155.535 69.0071 153.864 68.3997 151.766 68.3997H147.665V82.1508H151.766Z" fill="white"/>
<g clip-path="url(#clip0_20_3852)">
<path d="M214.323 109.288C196.213 109.288 181.533 93.8344 181.533 74.7717C181.533 55.7091 196.213 40.2557 214.323 40.2557C232.432 40.2557 247.113 55.7091 247.113 74.7717C247.113 93.8344 232.432 109.288 214.323 109.288Z" stroke="#5265FF" stroke-width="6.62707" stroke-linecap="round" stroke-linejoin="round"/>
<path d="M222.952 63.7267C220.755 61.9453 218.014 60.9707 215.185 60.9654C208.037 60.9654 202.242 67.1438 202.242 74.7718C202.242 82.3998 208.037 88.5782 215.185 88.5782C218.099 88.5782 220.787 87.5496 222.952 85.8169C227.37 82.2793 228.198 78.2924 228.612 74.7718M228.198 74.7718H215.22" stroke="#5265FF" stroke-width="6.62707" stroke-linecap="round" stroke-linejoin="round"/>
<path d="M212.597 40.2557C227.553 40.2557 257.468 43.7073 257.468 74.7717C257.468 105.836 227.553 109.288 212.597 109.288" stroke="#5265FF" stroke-width="6.62707"/>
</g>
<path d="M286.927 90.1033C284.028 90.1033 281.404 89.4682 279.057 88.198C276.738 86.9002 274.915 85.133 273.59 82.8964C272.265 80.6321 271.602 78.0918 271.602 75.2753C271.602 72.4587 272.265 69.9322 273.59 67.6955C274.915 65.4313 276.752 63.6641 279.099 62.3939C281.446 61.0961 284.069 60.4472 286.968 60.4472C289.233 60.4472 291.304 60.8338 293.181 61.6069C295.059 62.3525 296.66 63.4708 297.986 64.9619L295.294 67.5713C293.112 65.2794 290.392 64.1335 287.134 64.1335C284.98 64.1335 283.034 64.6167 281.294 65.5832C279.554 66.5496 278.188 67.8888 277.193 69.6008C276.227 71.2852 275.744 73.1767 275.744 75.2753C275.744 77.3738 276.227 79.2791 277.193 80.9911C278.188 82.6755 279.554 84.0009 281.294 84.9673C283.034 85.9338 284.98 86.417 287.134 86.417C290.365 86.417 293.085 85.2573 295.294 82.9378L297.986 85.5472C296.66 87.0383 295.045 88.1704 293.14 88.9436C291.262 89.7167 289.191 90.1033 286.927 90.1033ZM315.921 90.1033C312.994 90.1033 310.357 89.4682 308.01 88.198C305.663 86.9002 303.813 85.1192 302.46 82.855C301.134 80.5907 300.471 78.0641 300.471 75.2753C300.471 72.4864 301.134 69.9598 302.46 67.6955C303.813 65.4313 305.663 63.6641 308.01 62.3939C310.357 61.0961 312.994 60.4472 315.921 60.4472C318.82 60.4472 321.443 61.0961 323.79 62.3939C326.137 63.6641 327.974 65.4313 329.299 67.6955C330.625 69.9322 331.287 72.4587 331.287 75.2753C331.287 78.0918 330.625 80.6321 329.299 82.8964C327.974 85.133 326.137 86.9002 323.79 88.198C321.443 89.4682 318.82 90.1033 315.921 90.1033ZM315.921 86.417C318.047 86.417 319.952 85.9338 321.637 84.9673C323.349 84.0009 324.688 82.6755 325.654 80.9911C326.648 79.2791 327.145 77.3738 327.145 75.2753C327.145 73.1767 326.648 71.2852 325.654 69.6008C324.688 67.8888 323.349 66.5496 321.637 65.5832C319.952 64.6167 318.047 64.1335 315.921 64.1335C313.795 64.1335 311.862 64.6167 310.122 65.5832C308.41 66.5496 307.057 67.8888 306.063 69.6008C305.097 71.2852 304.613 73.1767 304.613 75.2753C304.613 77.3738 305.097 79.2791 306.063 80.9911C307.057 82.6755 308.41 84.0009 310.122 84.9673C311.862 85.9338 313.795 86.417 315.921 86.417ZM337.162 60.7785H341.304V89.772H337.162V60.7785ZM374.463 60.7785V89.772H371.067L353.671 68.1512V89.772H349.529V60.7785H352.925L370.321 82.3994V60.7785H374.463Z" fill="white"/>
<line x1="218.551" y1="22.2579" x2="218.551" y2="4.03342" stroke="#5265FF" stroke-width="6.62707" stroke-linecap="round"/>
<line x1="254.498" y1="34.1394" x2="267.384" y2="21.2528" stroke="#5265FF" stroke-width="6.62707" stroke-linecap="round"/>
<line x1="184.546" y1="34.3577" x2="171.66" y2="21.4711" stroke="#5265FF" stroke-width="6.62707" stroke-linecap="round"/>
<path opacity="0.8" d="M11.6416 168.508C11.6416 168.093 11.5765 167.727 11.4463 167.409C11.3242 167.084 11.1045 166.791 10.7871 166.53C10.4779 166.27 10.0465 166.022 9.49316 165.786C8.94792 165.55 8.25618 165.31 7.41797 165.065C6.53906 164.805 5.74561 164.516 5.0376 164.199C4.32959 163.873 3.72331 163.503 3.21875 163.088C2.71419 162.673 2.32764 162.197 2.05908 161.66C1.79053 161.123 1.65625 160.508 1.65625 159.816C1.65625 159.125 1.79867 158.486 2.0835 157.9C2.36833 157.314 2.77523 156.805 3.3042 156.374C3.84131 155.935 4.48014 155.593 5.2207 155.349C5.96126 155.104 6.78727 154.982 7.69873 154.982C9.03337 154.982 10.1646 155.239 11.0923 155.751C12.0282 156.256 12.7402 156.919 13.2285 157.741C13.7168 158.555 13.9609 159.426 13.9609 160.354H11.6172C11.6172 159.686 11.4748 159.096 11.1899 158.583C10.9051 158.063 10.4738 157.656 9.896 157.363C9.3182 157.062 8.58577 156.911 7.69873 156.911C6.86051 156.911 6.16878 157.037 5.62354 157.29C5.07829 157.542 4.67139 157.884 4.40283 158.315C4.14242 158.746 4.01221 159.239 4.01221 159.792C4.01221 160.166 4.08952 160.508 4.24414 160.817C4.4069 161.118 4.65511 161.399 4.98877 161.66C5.33057 161.92 5.76188 162.16 6.28271 162.38C6.81169 162.6 7.44238 162.811 8.1748 163.015C9.18392 163.299 10.0547 163.617 10.7871 163.967C11.5195 164.317 12.1217 164.711 12.5938 165.151C13.0739 165.582 13.4279 166.075 13.6558 166.628C13.8918 167.173 14.0098 167.792 14.0098 168.483C14.0098 169.208 13.8633 169.863 13.5703 170.449C13.2773 171.035 12.8582 171.535 12.313 171.95C11.7677 172.365 11.1126 172.687 10.3477 172.915C9.59082 173.134 8.74447 173.244 7.80859 173.244C6.98665 173.244 6.17692 173.13 5.37939 172.902C4.59001 172.674 3.86979 172.333 3.21875 171.877C2.57585 171.421 2.05908 170.86 1.66846 170.192C1.28597 169.517 1.09473 168.736 1.09473 167.849H3.43848C3.43848 168.459 3.55648 168.984 3.79248 169.423C4.02848 169.855 4.34993 170.213 4.75684 170.498C5.17188 170.782 5.63981 170.994 6.16064 171.132C6.68962 171.263 7.23893 171.328 7.80859 171.328C8.63053 171.328 9.32633 171.214 9.896 170.986C10.4657 170.758 10.897 170.432 11.1899 170.009C11.491 169.586 11.6416 169.086 11.6416 168.508ZM21.6815 171.389C22.2187 171.389 22.7151 171.279 23.1708 171.059C23.6265 170.839 24.0009 170.538 24.2938 170.156C24.5868 169.765 24.7536 169.322 24.7943 168.825H26.9428C26.9021 169.606 26.6376 170.335 26.1493 171.01C25.6692 171.678 25.0385 172.219 24.2572 172.634C23.476 173.041 22.6174 173.244 21.6815 173.244C20.6887 173.244 19.822 173.069 19.0814 172.719C18.349 172.369 17.7387 171.889 17.2504 171.279C16.7702 170.668 16.4081 169.969 16.164 169.179C15.928 168.382 15.81 167.539 15.81 166.652V166.14C15.81 165.253 15.928 164.414 16.164 163.625C16.4081 162.827 16.7702 162.124 17.2504 161.513C17.7387 160.903 18.349 160.423 19.0814 160.073C19.822 159.723 20.6887 159.548 21.6815 159.548C22.7151 159.548 23.6184 159.759 24.3915 160.183C25.1646 160.598 25.7709 161.167 26.2104 161.892C26.6579 162.608 26.9021 163.422 26.9428 164.333H24.7943C24.7536 163.788 24.599 163.295 24.3305 162.856C24.0701 162.417 23.712 162.067 23.2563 161.806C22.8087 161.538 22.2838 161.403 21.6815 161.403C20.9898 161.403 20.4079 161.542 19.9359 161.818C19.4721 162.087 19.1018 162.453 18.8251 162.917C18.5565 163.373 18.3612 163.881 18.2392 164.443C18.1252 164.996 18.0683 165.562 18.0683 166.14V166.652C18.0683 167.23 18.1252 167.8 18.2392 168.361C18.3531 168.923 18.5443 169.431 18.8129 169.887C19.0896 170.343 19.4599 170.709 19.9237 170.986C20.3957 171.254 20.9817 171.389 21.6815 171.389ZM36.9949 170.742V163.942C36.9949 163.422 36.8891 162.97 36.6775 162.587C36.4741 162.197 36.1648 161.896 35.7498 161.684C35.3348 161.472 34.8221 161.367 34.2117 161.367C33.6421 161.367 33.1416 161.464 32.7103 161.66C32.2871 161.855 31.9534 162.111 31.7093 162.429C31.4733 162.746 31.3553 163.088 31.3553 163.454H29.097C29.097 162.982 29.219 162.514 29.4632 162.05C29.7073 161.586 30.0573 161.167 30.513 160.793C30.9769 160.41 31.5302 160.109 32.1731 159.89C32.8242 159.662 33.5485 159.548 34.346 159.548C35.3063 159.548 36.1526 159.711 36.8851 160.036C37.6256 160.362 38.2034 160.854 38.6185 161.513C39.0416 162.164 39.2532 162.982 39.2532 163.967V170.119C39.2532 170.559 39.2898 171.027 39.3631 171.523C39.4445 172.019 39.5625 172.447 39.7171 172.805V173H37.3611C37.2472 172.74 37.1577 172.394 37.0926 171.962C37.0275 171.523 36.9949 171.116 36.9949 170.742ZM37.3855 164.992L37.41 166.579H35.1272C34.4843 166.579 33.9106 166.632 33.4061 166.738C32.9015 166.835 32.4783 166.986 32.1365 167.189C31.7947 167.393 31.5343 167.649 31.3553 167.958C31.1762 168.26 31.0867 168.614 31.0867 169.021C31.0867 169.436 31.1803 169.814 31.3675 170.156C31.5547 170.498 31.8354 170.77 32.2098 170.974C32.5923 171.169 33.0602 171.267 33.6136 171.267C34.3053 171.267 34.9157 171.12 35.4446 170.827C35.9736 170.534 36.3927 170.176 36.702 169.753C37.0193 169.33 37.1902 168.919 37.2146 168.52L38.179 169.606C38.122 169.948 37.9674 170.327 37.7151 170.742C37.4629 171.157 37.1251 171.556 36.702 171.938C36.2869 172.312 35.7905 172.626 35.2127 172.878C34.643 173.122 34.0001 173.244 33.284 173.244C32.3888 173.244 31.6035 173.069 30.928 172.719C30.2607 172.369 29.7399 171.901 29.3655 171.315C28.9993 170.721 28.8162 170.058 28.8162 169.326C28.8162 168.618 28.9546 167.995 29.2313 167.458C29.5079 166.913 29.9067 166.461 30.4275 166.103C30.9484 165.737 31.575 165.46 32.3074 165.273C33.0398 165.086 33.8577 164.992 34.761 164.992H37.3855ZM44.7888 162.612V173H42.5305V159.792H44.6667L44.7888 162.612ZM44.2517 165.896L43.3117 165.859C43.3199 164.956 43.4541 164.121 43.7146 163.356C43.975 162.583 44.3412 161.912 44.8132 161.342C45.2852 160.773 45.8467 160.333 46.4978 160.024C47.1569 159.707 47.8853 159.548 48.6828 159.548C49.3339 159.548 49.9198 159.637 50.4406 159.816C50.9615 159.987 51.405 160.264 51.7712 160.646C52.1455 161.029 52.4304 161.525 52.6257 162.136C52.821 162.738 52.9187 163.474 52.9187 164.345V173H50.6481V164.321C50.6481 163.629 50.5464 163.076 50.343 162.661C50.1395 162.237 49.8425 161.932 49.4519 161.745C49.0612 161.55 48.5811 161.452 48.0114 161.452C47.4499 161.452 46.9372 161.57 46.4733 161.806C46.0176 162.042 45.6229 162.368 45.2893 162.783C44.9637 163.198 44.7074 163.674 44.5202 164.211C44.3412 164.74 44.2517 165.301 44.2517 165.896ZM61.9878 154.25H64.2583V170.437L64.063 173H61.9878V154.25ZM73.1816 166.286V166.542C73.1816 167.503 73.0677 168.394 72.8398 169.216C72.612 170.03 72.2783 170.738 71.8389 171.34C71.3994 171.942 70.8623 172.41 70.2275 172.744C69.5928 173.077 68.8644 173.244 68.0425 173.244C67.2043 173.244 66.4678 173.102 65.833 172.817C65.2064 172.524 64.6774 172.105 64.2461 171.56C63.8148 171.014 63.4689 170.355 63.2085 169.582C62.9562 168.809 62.7812 167.938 62.6836 166.97V165.847C62.7812 164.87 62.9562 163.995 63.2085 163.222C63.4689 162.449 63.8148 161.79 64.2461 161.245C64.6774 160.691 65.2064 160.272 65.833 159.987C66.4596 159.694 67.188 159.548 68.0181 159.548C68.8481 159.548 69.5846 159.711 70.2275 160.036C70.8704 160.354 71.4076 160.809 71.8389 161.403C72.2783 161.997 72.612 162.709 72.8398 163.54C73.0677 164.361 73.1816 165.277 73.1816 166.286ZM70.9111 166.542V166.286C70.9111 165.627 70.8501 165.008 70.728 164.431C70.606 163.845 70.4106 163.332 70.1421 162.893C69.8735 162.445 69.5195 162.095 69.0801 161.843C68.6406 161.582 68.0994 161.452 67.4565 161.452C66.8869 161.452 66.3905 161.55 65.9673 161.745C65.5522 161.94 65.1982 162.205 64.9053 162.539C64.6123 162.864 64.3722 163.238 64.1851 163.662C64.006 164.077 63.8717 164.508 63.7822 164.956V167.897C63.9124 168.467 64.124 169.016 64.417 169.545C64.7181 170.066 65.1169 170.493 65.6133 170.827C66.1178 171.161 66.7404 171.328 67.481 171.328C68.0913 171.328 68.6121 171.206 69.0435 170.961C69.4829 170.709 69.8369 170.363 70.1055 169.924C70.3822 169.484 70.5856 168.976 70.7158 168.398C70.846 167.82 70.9111 167.202 70.9111 166.542ZM81.244 173.244C80.3244 173.244 79.4903 173.09 78.7416 172.78C78.001 172.463 77.3622 172.019 76.8251 171.45C76.2961 170.88 75.8892 170.205 75.6044 169.423C75.3196 168.642 75.1771 167.788 75.1771 166.86V166.347C75.1771 165.273 75.3358 164.317 75.6532 163.479C75.9706 162.632 76.4019 161.916 76.9472 161.33C77.4924 160.744 78.1109 160.301 78.8026 160C79.4944 159.698 80.2105 159.548 80.9511 159.548C81.8951 159.548 82.7089 159.711 83.3925 160.036C84.0842 160.362 84.6498 160.817 85.0893 161.403C85.5287 161.981 85.8542 162.665 86.0658 163.454C86.2774 164.235 86.3832 165.09 86.3832 166.018V167.031H76.5199V165.188H84.1249V165.017C84.0923 164.431 83.9703 163.861 83.7587 163.308C83.5552 162.754 83.2297 162.299 82.7821 161.94C82.3345 161.582 81.7242 161.403 80.9511 161.403C80.4384 161.403 79.9664 161.513 79.5351 161.733C79.1037 161.944 78.7335 162.262 78.4242 162.685C78.115 163.108 77.8749 163.625 77.704 164.235C77.5331 164.846 77.4477 165.55 77.4477 166.347V166.86C77.4477 167.486 77.5331 168.076 77.704 168.63C77.883 169.175 78.1394 169.655 78.473 170.07C78.8148 170.485 79.2258 170.811 79.706 171.047C80.1942 171.283 80.7476 171.401 81.3661 171.401C82.1636 171.401 82.8391 171.238 83.3925 170.913C83.9459 170.587 84.4301 170.152 84.8451 169.606L86.2123 170.693C85.9275 171.124 85.5653 171.535 85.1259 171.926C84.6864 172.316 84.1452 172.634 83.5023 172.878C82.8676 173.122 82.1148 173.244 81.244 173.244ZM91.1985 154.25V173H88.928V154.25H91.1985ZM93.9509 166.542V166.262C93.9509 165.31 94.0892 164.427 94.3659 163.613C94.6426 162.791 95.0414 162.079 95.5622 161.477C96.083 160.866 96.7137 160.394 97.4543 160.061C98.1949 159.719 99.0249 159.548 99.9445 159.548C100.872 159.548 101.706 159.719 102.447 160.061C103.196 160.394 103.83 160.866 104.351 161.477C104.88 162.079 105.283 162.791 105.56 163.613C105.836 164.427 105.975 165.31 105.975 166.262V166.542C105.975 167.495 105.836 168.378 105.56 169.191C105.283 170.005 104.88 170.717 104.351 171.328C103.83 171.93 103.2 172.402 102.459 172.744C101.727 173.077 100.897 173.244 99.9689 173.244C99.0412 173.244 98.2071 173.077 97.4665 172.744C96.7259 172.402 96.0912 171.93 95.5622 171.328C95.0414 170.717 94.6426 170.005 94.3659 169.191C94.0892 168.378 93.9509 167.495 93.9509 166.542ZM96.2092 166.262V166.542C96.2092 167.202 96.2865 167.824 96.4411 168.41C96.5957 168.988 96.8277 169.501 97.1369 169.948C97.4543 170.396 97.849 170.75 98.321 171.01C98.793 171.263 99.3423 171.389 99.9689 171.389C100.587 171.389 101.129 171.263 101.592 171.01C102.064 170.75 102.455 170.396 102.764 169.948C103.074 169.501 103.306 168.988 103.46 168.41C103.623 167.824 103.704 167.202 103.704 166.542V166.262C103.704 165.611 103.623 164.996 103.46 164.418C103.306 163.833 103.07 163.316 102.752 162.868C102.443 162.412 102.052 162.054 101.58 161.794C101.116 161.534 100.571 161.403 99.9445 161.403C99.326 161.403 98.7808 161.534 98.3088 161.794C97.8449 162.054 97.4543 162.412 97.1369 162.868C96.8277 163.316 96.5957 163.833 96.4411 164.418C96.2865 164.996 96.2092 165.611 96.2092 166.262ZM111.877 170.656L115.27 159.792H116.759L116.466 161.953L113.012 173H111.559L111.877 170.656ZM109.594 159.792L112.487 170.778L112.694 173H111.169L107.336 159.792H109.594ZM120.006 170.693L122.765 159.792H125.011L121.178 173H119.665L120.006 170.693ZM117.089 159.792L120.409 170.473L120.788 173H119.347L115.795 161.928L115.502 159.792H117.089ZM138.512 159.792V161.525H131.371V159.792H138.512ZM133.788 156.582H136.046V169.729C136.046 170.176 136.115 170.514 136.253 170.742C136.392 170.97 136.571 171.12 136.79 171.193C137.01 171.267 137.246 171.303 137.498 171.303C137.686 171.303 137.881 171.287 138.084 171.254C138.296 171.214 138.455 171.181 138.56 171.157L138.573 173C138.394 173.057 138.158 173.11 137.865 173.159C137.58 173.216 137.234 173.244 136.827 173.244C136.274 173.244 135.765 173.134 135.301 172.915C134.837 172.695 134.467 172.329 134.19 171.816C133.922 171.295 133.788 170.595 133.788 169.716V156.582ZM140.043 166.542V166.262C140.043 165.31 140.182 164.427 140.458 163.613C140.735 162.791 141.134 162.079 141.655 161.477C142.175 160.866 142.806 160.394 143.547 160.061C144.287 159.719 145.117 159.548 146.037 159.548C146.965 159.548 147.799 159.719 148.539 160.061C149.288 160.394 149.923 160.866 150.444 161.477C150.973 162.079 151.375 162.791 151.652 163.613C151.929 164.427 152.067 165.31 152.067 166.262V166.542C152.067 167.495 151.929 168.378 151.652 169.191C151.375 170.005 150.973 170.717 150.444 171.328C149.923 171.93 149.292 172.402 148.552 172.744C147.819 173.077 146.989 173.244 146.061 173.244C145.134 173.244 144.299 173.077 143.559 172.744C142.818 172.402 142.184 171.93 141.655 171.328C141.134 170.717 140.735 170.005 140.458 169.191C140.182 168.378 140.043 167.495 140.043 166.542ZM142.302 166.262V166.542C142.302 167.202 142.379 167.824 142.533 168.41C142.688 168.988 142.92 169.501 143.229 169.948C143.547 170.396 143.941 170.75 144.413 171.01C144.885 171.263 145.435 171.389 146.061 171.389C146.68 171.389 147.221 171.263 147.685 171.01C148.157 170.75 148.547 170.396 148.857 169.948C149.166 169.501 149.398 168.988 149.553 168.41C149.715 167.824 149.797 167.202 149.797 166.542V166.262C149.797 165.611 149.715 164.996 149.553 164.418C149.398 163.833 149.162 163.316 148.845 162.868C148.535 162.412 148.145 162.054 147.673 161.794C147.209 161.534 146.664 161.403 146.037 161.403C145.418 161.403 144.873 161.534 144.401 161.794C143.937 162.054 143.547 162.412 143.229 162.868C142.92 163.316 142.688 163.833 142.533 164.418C142.379 164.996 142.302 165.611 142.302 166.262ZM162.809 161.867V173H160.55V159.792H162.748L162.809 161.867ZM166.935 159.719L166.922 161.818C166.735 161.778 166.556 161.753 166.385 161.745C166.223 161.729 166.035 161.721 165.824 161.721C165.303 161.721 164.843 161.802 164.444 161.965C164.046 162.128 163.708 162.355 163.431 162.648C163.155 162.941 162.935 163.291 162.772 163.698C162.617 164.097 162.516 164.536 162.467 165.017L161.832 165.383C161.832 164.585 161.909 163.837 162.064 163.137C162.227 162.437 162.475 161.818 162.809 161.281C163.142 160.736 163.566 160.313 164.078 160.012C164.599 159.702 165.218 159.548 165.934 159.548C166.096 159.548 166.284 159.568 166.495 159.609C166.707 159.641 166.853 159.678 166.935 159.719ZM173.984 173.244C173.064 173.244 172.23 173.09 171.481 172.78C170.741 172.463 170.102 172.019 169.565 171.45C169.036 170.88 168.629 170.205 168.344 169.423C168.059 168.642 167.917 167.788 167.917 166.86V166.347C167.917 165.273 168.076 164.317 168.393 163.479C168.71 162.632 169.142 161.916 169.687 161.33C170.232 160.744 170.851 160.301 171.542 160C172.234 159.698 172.95 159.548 173.691 159.548C174.635 159.548 175.449 159.711 176.132 160.036C176.824 160.362 177.39 160.817 177.829 161.403C178.269 161.981 178.594 162.665 178.806 163.454C179.017 164.235 179.123 165.09 179.123 166.018V167.031H169.26V165.188H176.865V165.017C176.832 164.431 176.71 163.861 176.499 163.308C176.295 162.754 175.97 162.299 175.522 161.94C175.074 161.582 174.464 161.403 173.691 161.403C173.178 161.403 172.706 161.513 172.275 161.733C171.844 161.944 171.473 162.262 171.164 162.685C170.855 163.108 170.615 163.625 170.444 164.235C170.273 164.846 170.188 165.55 170.188 166.347V166.86C170.188 167.486 170.273 168.076 170.444 168.63C170.623 169.175 170.879 169.655 171.213 170.07C171.555 170.485 171.966 170.811 172.446 171.047C172.934 171.283 173.487 171.401 174.106 171.401C174.903 171.401 175.579 171.238 176.132 170.913C176.686 170.587 177.17 170.152 177.585 169.606L178.952 170.693C178.667 171.124 178.305 171.535 177.866 171.926C177.426 172.316 176.885 172.634 176.242 172.878C175.607 173.122 174.855 173.244 173.984 173.244ZM186.966 173.244C186.046 173.244 185.212 173.09 184.463 172.78C183.723 172.463 183.084 172.019 182.547 171.45C182.018 170.88 181.611 170.205 181.326 169.423C181.041 168.642 180.899 167.788 180.899 166.86V166.347C180.899 165.273 181.058 164.317 181.375 163.479C181.692 162.632 182.124 161.916 182.669 161.33C183.214 160.744 183.833 160.301 184.524 160C185.216 159.698 185.932 159.548 186.673 159.548C187.617 159.548 188.431 159.711 189.114 160.036C189.806 160.362 190.371 160.817 190.811 161.403C191.25 161.981 191.576 162.665 191.788 163.454C191.999 164.235 192.105 165.09 192.105 166.018V167.031H182.242V165.188H189.847V165.017C189.814 164.431 189.692 163.861 189.48 163.308C189.277 162.754 188.951 162.299 188.504 161.94C188.056 161.582 187.446 161.403 186.673 161.403C186.16 161.403 185.688 161.513 185.257 161.733C184.825 161.944 184.455 162.262 184.146 162.685C183.837 163.108 183.597 163.625 183.426 164.235C183.255 164.846 183.169 165.55 183.169 166.347V166.86C183.169 167.486 183.255 168.076 183.426 168.63C183.605 169.175 183.861 169.655 184.195 170.07C184.537 170.485 184.947 170.811 185.428 171.047C185.916 171.283 186.469 171.401 187.088 171.401C187.885 171.401 188.561 171.238 189.114 170.913C189.668 170.587 190.152 170.152 190.567 169.606L191.934 170.693C191.649 171.124 191.287 171.535 190.848 171.926C190.408 172.316 189.867 172.634 189.224 172.878C188.589 173.122 187.836 173.244 186.966 173.244ZM202.792 170.437V154.25H205.062V173H202.987L202.792 170.437ZM193.905 166.542V166.286C193.905 165.277 194.027 164.361 194.271 163.54C194.524 162.709 194.878 161.997 195.333 161.403C195.797 160.809 196.346 160.354 196.981 160.036C197.624 159.711 198.34 159.548 199.13 159.548C199.96 159.548 200.684 159.694 201.303 159.987C201.929 160.272 202.458 160.691 202.889 161.245C203.329 161.79 203.675 162.449 203.927 163.222C204.179 163.995 204.354 164.87 204.452 165.847V166.97C204.362 167.938 204.187 168.809 203.927 169.582C203.675 170.355 203.329 171.014 202.889 171.56C202.458 172.105 201.929 172.524 201.303 172.817C200.676 173.102 199.943 173.244 199.105 173.244C198.332 173.244 197.624 173.077 196.981 172.744C196.346 172.41 195.797 171.942 195.333 171.34C194.878 170.738 194.524 170.03 194.271 169.216C194.027 168.394 193.905 167.503 193.905 166.542ZM196.176 166.286V166.542C196.176 167.202 196.241 167.82 196.371 168.398C196.509 168.976 196.721 169.484 197.006 169.924C197.29 170.363 197.653 170.709 198.092 170.961C198.532 171.206 199.056 171.328 199.667 171.328C200.415 171.328 201.03 171.169 201.51 170.852C201.998 170.534 202.389 170.115 202.682 169.594C202.975 169.073 203.203 168.508 203.366 167.897V164.956C203.268 164.508 203.125 164.077 202.938 163.662C202.759 163.238 202.523 162.864 202.23 162.539C201.945 162.205 201.591 161.94 201.168 161.745C200.753 161.55 200.261 161.452 199.691 161.452C199.073 161.452 198.54 161.582 198.092 161.843C197.653 162.095 197.29 162.445 197.006 162.893C196.721 163.332 196.509 163.845 196.371 164.431C196.241 165.008 196.176 165.627 196.176 166.286ZM213.784 173.244C212.864 173.244 212.03 173.09 211.281 172.78C210.541 172.463 209.902 172.019 209.365 171.45C208.836 170.88 208.429 170.205 208.144 169.423C207.859 168.642 207.717 167.788 207.717 166.86V166.347C207.717 165.273 207.876 164.317 208.193 163.479C208.51 162.632 208.942 161.916 209.487 161.33C210.032 160.744 210.651 160.301 211.342 160C212.034 159.698 212.75 159.548 213.491 159.548C214.435 159.548 215.249 159.711 215.932 160.036C216.624 160.362 217.19 160.817 217.629 161.403C218.069 161.981 218.394 162.665 218.606 163.454C218.817 164.235 218.923 165.09 218.923 166.018V167.031H209.06V165.188H216.665V165.017C216.632 164.431 216.51 163.861 216.299 163.308C216.095 162.754 215.77 162.299 215.322 161.94C214.874 161.582 214.264 161.403 213.491 161.403C212.978 161.403 212.506 161.513 212.075 161.733C211.644 161.944 211.273 162.262 210.964 162.685C210.655 163.108 210.415 163.625 210.244 164.235C210.073 164.846 209.988 165.55 209.988 166.347V166.86C209.988 167.486 210.073 168.076 210.244 168.63C210.423 169.175 210.679 169.655 211.013 170.07C211.355 170.485 211.766 170.811 212.246 171.047C212.734 171.283 213.287 171.401 213.906 171.401C214.703 171.401 215.379 171.238 215.932 170.913C216.486 170.587 216.97 170.152 217.385 169.606L218.752 170.693C218.467 171.124 218.105 171.535 217.666 171.926C217.226 172.316 216.685 172.634 216.042 172.878C215.407 173.122 214.655 173.244 213.784 173.244ZM223.531 162.417V173H221.26V159.792H223.409L223.531 162.417ZM223.067 165.896L222.017 165.859C222.025 164.956 222.143 164.121 222.371 163.356C222.599 162.583 222.937 161.912 223.384 161.342C223.832 160.773 224.389 160.333 225.057 160.024C225.724 159.707 226.497 159.548 227.376 159.548C227.995 159.548 228.564 159.637 229.085 159.816C229.606 159.987 230.058 160.26 230.44 160.634C230.823 161.009 231.12 161.489 231.331 162.075C231.543 162.661 231.649 163.369 231.649 164.199V173H229.39V164.309C229.39 163.617 229.272 163.063 229.036 162.648C228.808 162.233 228.483 161.932 228.06 161.745C227.636 161.55 227.14 161.452 226.57 161.452C225.903 161.452 225.346 161.57 224.898 161.806C224.45 162.042 224.092 162.368 223.824 162.783C223.555 163.198 223.36 163.674 223.238 164.211C223.124 164.74 223.067 165.301 223.067 165.896ZM231.624 164.65L230.11 165.114C230.119 164.39 230.237 163.694 230.464 163.027C230.7 162.36 231.038 161.765 231.478 161.245C231.925 160.724 232.475 160.313 233.126 160.012C233.777 159.702 234.521 159.548 235.359 159.548C236.067 159.548 236.694 159.641 237.239 159.829C237.793 160.016 238.257 160.305 238.631 160.695C239.013 161.078 239.302 161.57 239.498 162.172C239.693 162.775 239.791 163.491 239.791 164.321V173H237.52V164.296C237.52 163.556 237.402 162.982 237.166 162.575C236.938 162.16 236.613 161.871 236.19 161.708C235.775 161.538 235.278 161.452 234.7 161.452C234.204 161.452 233.764 161.538 233.382 161.708C232.999 161.879 232.678 162.115 232.418 162.417C232.157 162.709 231.958 163.047 231.819 163.43C231.689 163.812 231.624 164.219 231.624 164.65ZM252.876 170.961L256.489 159.792H258.796L254.048 173H252.534L252.876 170.961ZM249.861 159.792L253.584 171.022L253.84 173H252.327L247.541 159.792H249.861ZM259.901 166.542V166.262C259.901 165.31 260.039 164.427 260.316 163.613C260.592 162.791 260.991 162.079 261.512 161.477C262.033 160.866 262.664 160.394 263.404 160.061C264.145 159.719 264.975 159.548 265.894 159.548C266.822 159.548 267.656 159.719 268.397 160.061C269.145 160.394 269.78 160.866 270.301 161.477C270.83 162.079 271.233 162.791 271.51 163.613C271.786 164.427 271.925 165.31 271.925 166.262V166.542C271.925 167.495 271.786 168.378 271.51 169.191C271.233 170.005 270.83 170.717 270.301 171.328C269.78 171.93 269.15 172.402 268.409 172.744C267.677 173.077 266.846 173.244 265.919 173.244C264.991 173.244 264.157 173.077 263.416 172.744C262.676 172.402 262.041 171.93 261.512 171.328C260.991 170.717 260.592 170.005 260.316 169.191C260.039 168.378 259.901 167.495 259.901 166.542ZM262.159 166.262V166.542C262.159 167.202 262.236 167.824 262.391 168.41C262.546 168.988 262.777 169.501 263.087 169.948C263.404 170.396 263.799 170.75 264.271 171.01C264.743 171.263 265.292 171.389 265.919 171.389C266.537 171.389 267.078 171.263 267.542 171.01C268.014 170.75 268.405 170.396 268.714 169.948C269.023 169.501 269.255 168.988 269.41 168.41C269.573 167.824 269.654 167.202 269.654 166.542V166.262C269.654 165.611 269.573 164.996 269.41 164.418C269.255 163.833 269.019 163.316 268.702 162.868C268.393 162.412 268.002 162.054 267.53 161.794C267.066 161.534 266.521 161.403 265.894 161.403C265.276 161.403 264.731 161.534 264.259 161.794C263.795 162.054 263.404 162.412 263.087 162.868C262.777 163.316 262.546 163.833 262.391 164.418C262.236 164.996 262.159 165.611 262.159 166.262ZM282.563 169.948V159.792H284.833V173H282.673L282.563 169.948ZM282.99 167.165L283.93 167.141C283.93 168.02 283.836 168.833 283.649 169.582C283.47 170.323 283.177 170.965 282.77 171.511C282.363 172.056 281.83 172.483 281.171 172.792C280.512 173.094 279.71 173.244 278.766 173.244C278.123 173.244 277.533 173.151 276.996 172.963C276.467 172.776 276.012 172.487 275.629 172.097C275.247 171.706 274.95 171.197 274.738 170.571C274.535 169.944 274.433 169.191 274.433 168.312V159.792H276.691V168.337C276.691 168.931 276.756 169.423 276.886 169.814C277.025 170.196 277.208 170.502 277.436 170.729C277.672 170.949 277.932 171.104 278.217 171.193C278.51 171.283 278.811 171.328 279.12 171.328C280.081 171.328 280.841 171.145 281.403 170.778C281.965 170.404 282.367 169.903 282.612 169.277C282.864 168.642 282.99 167.938 282.99 167.165ZM293.286 171.389C293.823 171.389 294.32 171.279 294.775 171.059C295.231 170.839 295.606 170.538 295.899 170.156C296.191 169.765 296.358 169.322 296.399 168.825H298.547C298.507 169.606 298.242 170.335 297.754 171.01C297.274 171.678 296.643 172.219 295.862 172.634C295.081 173.041 294.222 173.244 293.286 173.244C292.293 173.244 291.427 173.069 290.686 172.719C289.954 172.369 289.343 171.889 288.855 171.279C288.375 170.668 288.013 169.969 287.769 169.179C287.533 168.382 287.415 167.539 287.415 166.652V166.14C287.415 165.253 287.533 164.414 287.769 163.625C288.013 162.827 288.375 162.124 288.855 161.513C289.343 160.903 289.954 160.423 290.686 160.073C291.427 159.723 292.293 159.548 293.286 159.548C294.32 159.548 295.223 159.759 295.996 160.183C296.769 160.598 297.376 161.167 297.815 161.892C298.263 162.608 298.507 163.422 298.547 164.333H296.399C296.358 163.788 296.204 163.295 295.935 162.856C295.675 162.417 295.317 162.067 294.861 161.806C294.413 161.538 293.888 161.403 293.286 161.403C292.594 161.403 292.013 161.542 291.541 161.818C291.077 162.087 290.706 162.453 290.43 162.917C290.161 163.373 289.966 163.881 289.844 164.443C289.73 164.996 289.673 165.562 289.673 166.14V166.652C289.673 167.23 289.73 167.8 289.844 168.361C289.958 168.923 290.149 169.431 290.418 169.887C290.694 170.343 291.065 170.709 291.528 170.986C292 171.254 292.586 171.389 293.286 171.389ZM303.07 154.25V173H300.812V154.25H303.07ZM302.533 165.896L301.593 165.859C301.601 164.956 301.735 164.121 301.996 163.356C302.256 162.583 302.622 161.912 303.094 161.342C303.566 160.773 304.128 160.333 304.779 160.024C305.438 159.707 306.166 159.548 306.964 159.548C307.615 159.548 308.201 159.637 308.722 159.816C309.243 159.987 309.686 160.264 310.052 160.646C310.427 161.029 310.711 161.525 310.907 162.136C311.102 162.738 311.2 163.474 311.2 164.345V173H308.929V164.321C308.929 163.629 308.827 163.076 308.624 162.661C308.421 162.237 308.124 161.932 307.733 161.745C307.342 161.55 306.862 161.452 306.292 161.452C305.731 161.452 305.218 161.57 304.754 161.806C304.299 162.042 303.904 162.368 303.57 162.783C303.245 163.198 302.988 163.674 302.801 164.211C302.622 164.74 302.533 165.301 302.533 165.896ZM319.787 173.244C318.867 173.244 318.033 173.09 317.285 172.78C316.544 172.463 315.905 172.019 315.368 171.45C314.839 170.88 314.432 170.205 314.147 169.423C313.863 168.642 313.72 167.788 313.72 166.86V166.347C313.72 165.273 313.879 164.317 314.196 163.479C314.514 162.632 314.945 161.916 315.49 161.33C316.035 160.744 316.654 160.301 317.346 160C318.037 159.698 318.753 159.548 319.494 159.548C320.438 159.548 321.252 159.711 321.935 160.036C322.627 160.362 323.193 160.817 323.632 161.403C324.072 161.981 324.397 162.665 324.609 163.454C324.82 164.235 324.926 165.09 324.926 166.018V167.031H315.063V165.188H322.668V165.017C322.635 164.431 322.513 163.861 322.302 163.308C322.098 162.754 321.773 162.299 321.325 161.94C320.878 161.582 320.267 161.403 319.494 161.403C318.981 161.403 318.509 161.513 318.078 161.733C317.647 161.944 317.276 162.262 316.967 162.685C316.658 163.108 316.418 163.625 316.247 164.235C316.076 164.846 315.991 165.55 315.991 166.347V166.86C315.991 167.486 316.076 168.076 316.247 168.63C316.426 169.175 316.682 169.655 317.016 170.07C317.358 170.485 317.769 170.811 318.249 171.047C318.737 171.283 319.291 171.401 319.909 171.401C320.707 171.401 321.382 171.238 321.935 170.913C322.489 170.587 322.973 170.152 323.388 169.606L324.755 170.693C324.47 171.124 324.108 171.535 323.669 171.926C323.229 172.316 322.688 172.634 322.045 172.878C321.411 173.122 320.658 173.244 319.787 173.244ZM329.546 161.867V173H327.288V159.792H329.485L329.546 161.867ZM333.672 159.719L333.66 161.818C333.473 161.778 333.294 161.753 333.123 161.745C332.96 161.729 332.773 161.721 332.561 161.721C332.041 161.721 331.581 161.802 331.182 161.965C330.783 162.128 330.445 162.355 330.169 162.648C329.892 162.941 329.672 163.291 329.51 163.698C329.355 164.097 329.253 164.536 329.204 165.017L328.57 165.383C328.57 164.585 328.647 163.837 328.802 163.137C328.964 162.437 329.213 161.818 329.546 161.281C329.88 160.736 330.303 160.313 330.816 160.012C331.337 159.702 331.955 159.548 332.671 159.548C332.834 159.548 333.021 159.568 333.233 159.609C333.444 159.641 333.591 159.678 333.672 159.719ZM346.696 171.389C347.233 171.389 347.73 171.279 348.186 171.059C348.641 170.839 349.016 170.538 349.309 170.156C349.602 169.765 349.768 169.322 349.809 168.825H351.958C351.917 169.606 351.652 170.335 351.164 171.01C350.684 171.678 350.053 172.219 349.272 172.634C348.491 173.041 347.632 173.244 346.696 173.244C345.704 173.244 344.837 173.069 344.096 172.719C343.364 172.369 342.754 171.889 342.265 171.279C341.785 170.668 341.423 169.969 341.179 169.179C340.943 168.382 340.825 167.539 340.825 166.652V166.14C340.825 165.253 340.943 164.414 341.179 163.625C341.423 162.827 341.785 162.124 342.265 161.513C342.754 160.903 343.364 160.423 344.096 160.073C344.837 159.723 345.704 159.548 346.696 159.548C347.73 159.548 348.633 159.759 349.406 160.183C350.179 160.598 350.786 161.167 351.225 161.892C351.673 162.608 351.917 163.422 351.958 164.333H349.809C349.768 163.788 349.614 163.295 349.345 162.856C349.085 162.417 348.727 162.067 348.271 161.806C347.823 161.538 347.299 161.403 346.696 161.403C346.005 161.403 345.423 161.542 344.951 161.818C344.487 162.087 344.117 162.453 343.84 162.917C343.571 163.373 343.376 163.881 343.254 164.443C343.14 164.996 343.083 165.562 343.083 166.14V166.652C343.083 167.23 343.14 167.8 343.254 168.361C343.368 168.923 343.559 169.431 343.828 169.887C344.104 170.343 344.475 170.709 344.939 170.986C345.411 171.254 345.997 171.389 346.696 171.389ZM356.48 161.867V173H354.222V159.792H356.419L356.48 161.867ZM360.606 159.719L360.594 161.818C360.407 161.778 360.228 161.753 360.057 161.745C359.894 161.729 359.707 161.721 359.495 161.721C358.974 161.721 358.514 161.802 358.116 161.965C357.717 162.128 357.379 162.355 357.103 162.648C356.826 162.941 356.606 163.291 356.443 163.698C356.289 164.097 356.187 164.536 356.138 165.017L355.503 165.383C355.503 164.585 355.581 163.837 355.735 163.137C355.898 162.437 356.146 161.818 356.48 161.281C356.814 160.736 357.237 160.313 357.75 160.012C358.27 159.702 358.889 159.548 359.605 159.548C359.768 159.548 359.955 159.568 360.167 159.609C360.378 159.641 360.525 159.678 360.606 159.719ZM367.655 173.244C366.736 173.244 365.901 173.09 365.153 172.78C364.412 172.463 363.773 172.019 363.236 171.45C362.707 170.88 362.3 170.205 362.016 169.423C361.731 168.642 361.588 167.788 361.588 166.86V166.347C361.588 165.273 361.747 164.317 362.064 163.479C362.382 162.632 362.813 161.916 363.358 161.33C363.904 160.744 364.522 160.301 365.214 160C365.906 159.698 366.622 159.548 367.362 159.548C368.306 159.548 369.12 159.711 369.804 160.036C370.495 160.362 371.061 160.817 371.5 161.403C371.94 161.981 372.265 162.665 372.477 163.454C372.689 164.235 372.794 165.09 372.794 166.018V167.031H362.931V165.188H370.536V165.017C370.503 164.431 370.381 163.861 370.17 163.308C369.966 162.754 369.641 162.299 369.193 161.94C368.746 161.582 368.135 161.403 367.362 161.403C366.85 161.403 366.378 161.513 365.946 161.733C365.515 161.944 365.145 162.262 364.835 162.685C364.526 163.108 364.286 163.625 364.115 164.235C363.944 164.846 363.859 165.55 363.859 166.347V166.86C363.859 167.486 363.944 168.076 364.115 168.63C364.294 169.175 364.551 169.655 364.884 170.07C365.226 170.485 365.637 170.811 366.117 171.047C366.605 171.283 367.159 171.401 367.777 171.401C368.575 171.401 369.25 171.238 369.804 170.913C370.357 170.587 370.841 170.152 371.256 169.606L372.623 170.693C372.339 171.124 371.976 171.535 371.537 171.926C371.098 172.316 370.556 172.634 369.913 172.878C369.279 173.122 368.526 173.244 367.655 173.244ZM383.481 170.437V154.25H385.752V173H383.677L383.481 170.437ZM374.595 166.542V166.286C374.595 165.277 374.717 164.361 374.961 163.54C375.213 162.709 375.567 161.997 376.023 161.403C376.487 160.809 377.036 160.354 377.671 160.036C378.314 159.711 379.03 159.548 379.819 159.548C380.649 159.548 381.374 159.694 381.992 159.987C382.619 160.272 383.148 160.691 383.579 161.245C384.018 161.79 384.364 162.449 384.617 163.222C384.869 163.995 385.044 164.87 385.141 165.847V166.97C385.052 167.938 384.877 168.809 384.617 169.582C384.364 170.355 384.018 171.014 383.579 171.56C383.148 172.105 382.619 172.524 381.992 172.817C381.365 173.102 380.633 173.244 379.795 173.244C379.022 173.244 378.314 173.077 377.671 172.744C377.036 172.41 376.487 171.942 376.023 171.34C375.567 170.738 375.213 170.03 374.961 169.216C374.717 168.394 374.595 167.503 374.595 166.542ZM376.865 166.286V166.542C376.865 167.202 376.93 167.82 377.06 168.398C377.199 168.976 377.41 169.484 377.695 169.924C377.98 170.363 378.342 170.709 378.782 170.961C379.221 171.206 379.746 171.328 380.356 171.328C381.105 171.328 381.719 171.169 382.2 170.852C382.688 170.534 383.078 170.115 383.371 169.594C383.664 169.073 383.892 168.508 384.055 167.897V164.956C383.957 164.508 383.815 164.077 383.628 163.662C383.449 163.238 383.213 162.864 382.92 162.539C382.635 162.205 382.281 161.94 381.858 161.745C381.443 161.55 380.95 161.452 380.381 161.452C379.762 161.452 379.229 161.582 378.782 161.843C378.342 162.095 377.98 162.445 377.695 162.893C377.41 163.332 377.199 163.845 377.06 164.431C376.93 165.008 376.865 165.627 376.865 166.286ZM391.446 159.792V173H389.175V159.792H391.446ZM389.005 156.289C389.005 155.922 389.114 155.613 389.334 155.361C389.562 155.109 389.896 154.982 390.335 154.982C390.766 154.982 391.096 155.109 391.324 155.361C391.56 155.613 391.678 155.922 391.678 156.289C391.678 156.639 391.56 156.94 391.324 157.192C391.096 157.436 390.766 157.558 390.335 157.558C389.896 157.558 389.562 157.436 389.334 157.192C389.114 156.94 389.005 156.639 389.005 156.289ZM400.326 159.792V161.525H393.185V159.792H400.326ZM395.602 156.582H397.86V169.729C397.86 170.176 397.93 170.514 398.068 170.742C398.206 170.97 398.385 171.12 398.605 171.193C398.825 171.267 399.061 171.303 399.313 171.303C399.5 171.303 399.696 171.287 399.899 171.254C400.111 171.214 400.269 171.181 400.375 171.157L400.387 173C400.208 173.057 399.972 173.11 399.679 173.159C399.394 173.216 399.049 173.244 398.642 173.244C398.088 173.244 397.58 173.134 397.116 172.915C396.652 172.695 396.282 172.329 396.005 171.816C395.736 171.295 395.602 170.595 395.602 169.716V156.582ZM410.391 169.497C410.391 169.171 410.317 168.87 410.171 168.593C410.033 168.308 409.744 168.052 409.304 167.824C408.873 167.588 408.222 167.385 407.351 167.214C406.619 167.059 405.955 166.876 405.361 166.665C404.775 166.453 404.275 166.197 403.86 165.896C403.453 165.594 403.14 165.24 402.92 164.833C402.7 164.427 402.59 163.951 402.59 163.405C402.59 162.884 402.704 162.392 402.932 161.928C403.168 161.464 403.498 161.053 403.921 160.695C404.352 160.337 404.869 160.056 405.471 159.853C406.073 159.65 406.745 159.548 407.485 159.548C408.543 159.548 409.447 159.735 410.195 160.109C410.944 160.484 411.518 160.984 411.917 161.611C412.315 162.229 412.515 162.917 412.515 163.674H410.256C410.256 163.308 410.146 162.954 409.927 162.612C409.715 162.262 409.402 161.973 408.987 161.745C408.58 161.517 408.079 161.403 407.485 161.403C406.859 161.403 406.35 161.501 405.959 161.696C405.577 161.883 405.296 162.124 405.117 162.417C404.946 162.709 404.861 163.019 404.861 163.344C404.861 163.588 404.902 163.808 404.983 164.003C405.072 164.191 405.227 164.366 405.447 164.528C405.667 164.683 405.976 164.829 406.375 164.968C406.773 165.106 407.282 165.244 407.9 165.383C408.983 165.627 409.874 165.92 410.574 166.262C411.274 166.604 411.794 167.023 412.136 167.519C412.478 168.015 412.649 168.618 412.649 169.326C412.649 169.903 412.527 170.432 412.283 170.913C412.047 171.393 411.701 171.808 411.245 172.158C410.798 172.5 410.26 172.768 409.634 172.963C409.015 173.151 408.319 173.244 407.546 173.244C406.383 173.244 405.398 173.037 404.592 172.622C403.787 172.207 403.176 171.669 402.761 171.01C402.346 170.351 402.139 169.655 402.139 168.923H404.409C404.442 169.541 404.621 170.034 404.946 170.4C405.272 170.758 405.671 171.014 406.143 171.169C406.615 171.315 407.083 171.389 407.546 171.389C408.165 171.389 408.682 171.307 409.097 171.145C409.52 170.982 409.841 170.758 410.061 170.473C410.281 170.188 410.391 169.863 410.391 169.497Z" fill="white"/>
<defs>
<clipPath id="clip0_20_3852">
<rect width="82.8384" height="82.8384" fill="white" transform="translate(178.081 33.3528)"/>
</clipPath>
</defs>
</svg>
